<svg width="382" height="124" viewBox="0 0 382 124" fill="none" xmlns="http://www.w3.org/2000/svg">
<g clip-path="url(#clip0_3056_9157)">
<path d="M60.6268 84.4691V65.1606H64.4371C70.6985 65.1606 71.8009 68.2966 71.8009 74.3011C71.8009 80.3056 71.3032 84.4691 64.3622 84.4691H60.6268ZM60.6268 57.5292V40.9339H64.1802C69.8529 40.9339 71.8009 43.7328 71.8009 49.0737C71.8009 54.4146 70.2703 57.5292 64.5281 57.5292H60.6321H60.6268ZM64.6084 32.8102H52V93.0959H63.7575C74.9369 93.0959 79.9139 87.177 79.9139 76.6772V73.2896C79.9139 67.0229 78.073 63.3624 74.0004 61.4359C77.8107 59.0758 79.9139 56.689 79.9139 50.2564V48.0622C79.9193 40.1793 75.7771 32.8102 64.6084 32.8102ZM92.3885 32.8102H83.7564V93.0959H92.3885V32.8102ZM110.937 32.3071C103.905 32.3071 96.4503 37.2145 96.4503 47.0347V78.8713C96.4503 88.7129 103.905 93.615 110.937 93.615C117.969 93.615 125.419 88.7129 125.419 78.8713V59.9106H109.931V67.526H116.786V78.8713C116.786 83.0188 114.068 84.9722 110.937 84.9722C107.806 84.9722 105.093 83.0242 105.093 78.8713V47.0347C105.093 42.8979 107.796 40.9339 110.937 40.9339C114.078 40.9339 116.786 42.8926 116.786 47.0347V50.0798H125.419V47.0347C125.419 37.2145 117.964 32.3071 110.937 32.3071" fill="#76787A"/>
<path d="M137.427 61.4359V40.9339H141.901C148.682 40.9339 148.682 45.5898 148.682 51.2732C148.682 57.283 148.607 61.4359 141.58 61.4359H137.427V61.4359ZM141.736 32.8102H128.785V93.0959H137.422V69.5596H141.816C148.163 69.5596 151.973 67.1835 154.349 63.2929C156.377 59.9856 156.8 56.4321 156.8 51.1768C156.8 43.979 155.88 40.174 152.915 37.0433C149.94 33.9073 146.482 32.8048 141.736 32.8048M168.065 59.7394V40.9339H172.555C178.913 40.9339 179.93 44.2465 179.93 50.342C179.93 56.4375 178.993 59.7394 172.989 59.7394H168.065V59.7394ZM173.331 32.8102H159.444V93.0959H168.071V67.3547H173.235L181.295 93.0959H190.44L181.118 65.5726C186.63 62.5276 188.573 57.4489 188.573 50.5079C188.573 38.82 183.574 32.8102 173.331 32.8102M269.473 32.8102H243.737V93.0959H269.473V84.4691H252.369V66.7714H267.268V58.6316H252.369V40.9339H269.473V32.8102V32.8102ZM206.431 84.9722C203.306 84.9722 200.592 83.0242 200.592 78.8713V47.0401C200.592 42.8926 203.306 40.9339 206.431 40.9339C209.556 40.9339 212.264 42.8926 212.264 47.0401V78.8713C212.264 83.0188 209.578 84.9722 206.431 84.9722ZM206.431 32.3125C199.404 32.3125 191.96 37.2199 191.96 47.0454V78.8767C191.96 88.7129 199.404 93.6203 206.431 93.6203C213.458 93.6203 220.912 88.7129 220.912 78.8767V47.0401C220.912 37.2145 213.458 32.3071 206.431 32.3071M286.068 32.3071C277.687 32.3071 271.999 38.3063 271.999 46.1892V79.3905C271.999 90.3933 279.619 93.615 286.234 93.615C293.924 93.615 299.934 87.1021 299.934 79.6366V75.9119H291.307V78.8713C291.307 83.6182 288.257 84.9722 285.897 84.9722C281.985 84.9722 280.625 82.2643 280.625 78.7964V47.9659C280.625 43.904 281.648 40.9339 285.977 40.9339C289.279 40.9339 291.302 43.8184 291.302 47.206V50.0798H299.929V46.6976C299.929 44.6051 299.559 42.6732 298.89 40.9392L298.778 40.7252M298.842 40.8215C296.787 35.6519 291.987 32.3125 286.063 32.3125Z" fill="white"/>
<path d="M239.654 32.8105H231.022V77.6944C231.022 83.6935 227.297 84.9672 225.167 84.9672C224.525 84.9672 223.867 84.8013 223.24 84.5658L221.694 93.214C222.7 93.4548 223.749 93.6153 224.921 93.6153C234.158 93.6153 239.659 86.8402 239.659 78.8717V32.8105H239.654Z" fill="white"/>
<path d="M302.315 32.8262L302.358 40.9499H312.296V93.1119H320.934V40.9499H331V32.8262H302.315Z" fill="white"/>
<path d="M330.995 40.9502H320.934V93.1175H330.995V40.9502Z" fill="#76787A"/>
<path d="M327.934 90.3933V89.7939H323.925V90.3933H323.62V89.2053L327.077 87.7764C327.184 87.7282 327.377 87.6586 327.564 87.6051V87.5944C327.436 87.5677 327.291 87.5302 327.131 87.4606L323.62 86.0264V84.833H323.925V85.4056H327.934V84.833H328.239V86.3689H327.934V85.7856H323.834V85.7963L328.244 87.5998V87.6747L323.834 89.4568V89.4675H327.934V88.9163H328.239V90.388H327.934V90.3933Z" fill="white"/>
<path d="M327.934 82.6392V83.2225H323.925V82.6392H323.62V84.1858H323.925V83.6078H327.934V84.1858H328.239V82.6392H327.934Z" fill="white"/>
<path d="M327.934 80.167C327.934 79.4981 327.826 78.9361 327.447 78.5562C327.109 78.2137 326.59 78.0103 325.9 78.0103C325.375 78.0103 324.819 78.1762 324.46 78.5348C324.032 78.9629 323.931 79.4981 323.931 80.1777V81.034H327.939V80.167H327.934ZM327.934 82.0561V81.4139H323.925V82.0561H323.62V80.2205C323.62 79.4017 323.743 78.7435 324.214 78.2725C324.642 77.8444 325.263 77.625 325.889 77.625C326.574 77.625 327.222 77.8284 327.698 78.3047C328.094 78.7007 328.244 79.2733 328.244 80.1777V82.0561H327.939H327.934Z" fill="white"/>
<path d="M327.934 75.0025C327.934 74.3389 327.826 73.7716 327.447 73.3916C327.109 73.0545 326.59 72.8458 325.9 72.8458C325.375 72.8458 324.819 73.0117 324.46 73.3702C324.032 73.7984 323.931 74.3389 323.931 75.0132V75.8694H327.939V74.9971L327.934 75.0025ZM327.934 76.8969V76.2601H323.925V76.8969H323.62V75.0613C323.62 74.2425 323.743 73.5843 324.214 73.1134C324.642 72.6852 325.263 72.4658 325.889 72.4658C326.574 72.4658 327.222 72.6745 327.698 73.1508C328.094 73.5468 328.244 74.1195 328.244 75.0185V76.8969H327.939H327.934Z" fill="white"/>
<path d="M327.934 71.6897V71.0636H323.925V71.6897H323.62V70.0629H323.925V70.6836H327.934V68.7785H326.403V68.4199H328.239V71.6897H327.934Z" fill="white"/>
<path d="M327.934 67.8845V67.2958H323.925V67.8845H323.62V64.1865H324.744V64.4969H323.925V66.9158H325.723V64.9946H326.028V66.9158H327.934V64.4969H327.104V64.1865H328.239V67.8845H327.934Z" fill="white"/>
<path d="M327.934 61.3986V60.8046H323.925V61.3986H323.62V57.6953H324.744V58.0057H323.925V60.4193H325.723V58.5034H326.028V60.4193H327.934V58.0057H327.104V57.6953H328.239V61.3986H327.934Z" fill="white"/>
<path d="M326.178 53.9811L323.84 54.7839V54.832L326.178 55.6348V53.9811ZM323.925 55.2281V55.8114H323.62V53.8259H323.925V54.4039L327.934 52.9964V52.4238H328.239V53.9544H327.934V53.3764L326.483 53.8848V55.7525L327.934 56.2502V55.6455H328.239V57.2082H327.934V56.6248L323.925 55.2334V55.2281Z" fill="white"/>
<path d="M326.655 51.9477V51.6373H326.81C327.441 51.6373 327.971 51.038 327.971 50.3316C327.971 49.7215 327.575 49.2398 326.992 49.2398C325.606 49.2398 326.403 51.937 324.685 51.937C324.054 51.937 323.545 51.3912 323.545 50.5884C323.545 50.1068 323.749 49.6573 324.086 49.4004V49.3897H323.62V49.0846H324.862V49.3897H324.771C324.3 49.3897 323.877 49.9569 323.877 50.6045C323.877 51.1718 324.225 51.5838 324.685 51.5838C326.039 51.5838 325.21 48.8599 327.013 48.8599C327.746 48.8599 328.308 49.4914 328.308 50.3262C328.308 50.8721 328.051 51.3805 327.634 51.6266V51.6373H328.239V51.9477H326.655V51.9477Z" fill="white"/>
<path d="M327.934 47.0831V46.4516H323.925V47.7842H325.076V48.0999H323.62V44.4287H325.076V44.7391H323.925V46.0716H327.934V45.4348H328.239V47.0831H327.934Z" fill="white"/>
</g>
<defs>
<clipPath id="clip0_3056_9157">
<rect width="279" height="61.3079" fill="white" transform="translate(52 32.3071)"/>
</clipPath>
</defs>
</svg>
