<svg width="382" height="124" viewBox="0 0 382 124" fill="none" xmlns="http://www.w3.org/2000/svg">
<g clip-path="url(#clip0_3056_9159)">
<path d="M279.544 77.941V83.4109H280.518V78.8198L281.534 83.4109H282.412L283.524 78.8198V83.4109H284.635V77.941H282.933L282.074 81.3199L281.296 77.941H279.539H279.544ZM285.675 83.4109H286.877V77.941H285.675V83.4109ZM287.903 83.4109H289.337C289.766 83.4109 290.342 83.4109 290.832 83.027C291.428 82.5775 291.731 81.6532 291.731 80.6381C291.731 77.9511 290.029 77.941 289.18 77.941H287.903V83.4109V83.4109ZM289.105 78.8905H289.312C289.797 78.8905 290.463 78.941 290.463 80.6229C290.463 82.421 289.786 82.4765 289.312 82.4765H289.105V78.8905V78.8905ZM292.514 83.4109H293.958C294.357 83.4109 294.953 83.4109 295.453 83.027C296.029 82.5775 296.332 81.6532 296.332 80.6381C296.332 77.9511 294.64 77.941 293.802 77.941H292.514V83.4109V83.4109ZM293.726 78.8905H293.923C294.413 78.8905 295.074 78.941 295.074 80.6229C295.074 82.421 294.403 82.4765 293.923 82.4765H293.726V78.8905V78.8905ZM297.125 77.946V83.4159H300.095V82.3806H298.317V77.946H297.125ZM300.701 77.946V83.4159H304.019V82.4412H301.893V81.0926H303.555V80.1431H301.893V78.8905H304.019V77.946H300.701V77.946ZM306.696 77.946V83.4159H310.004V82.4412H307.893V81.0926H309.535V80.1431H307.893V78.8905H310.004V77.946H306.696V77.946ZM312.222 77.946L310.58 83.4159H311.696L311.969 82.2947H313.494L313.767 83.4159H314.994L313.434 77.946H312.222V77.946ZM312.196 81.3452L312.722 79.1178L313.277 81.3452H312.191H312.196ZM318.798 79.138C318.692 78.7693 318.399 77.8652 317.04 77.8652C315.838 77.8652 315.292 78.6885 315.292 79.537C315.292 80.6482 316.191 80.9714 316.934 81.234C317.353 81.3906 317.707 81.5371 317.707 81.926C317.707 82.2846 317.414 82.5119 317.005 82.5119C316.343 82.5119 316.186 81.9361 316.126 81.6937L315.07 81.9967C315.141 82.2341 315.247 82.5674 315.54 82.9159C315.979 83.4109 316.565 83.4917 316.964 83.4917C318.252 83.4917 318.909 82.6836 318.909 81.7543C318.909 80.6431 318.02 80.3098 317.393 80.0774C316.818 79.8401 316.449 79.7239 316.449 79.335C316.449 79.1178 316.636 78.8451 317.035 78.8451C317.585 78.8451 317.727 79.3249 317.808 79.5168L318.803 79.138H318.798ZM319.111 77.946V78.9612H320.207V83.4159H321.409V78.9612H322.51V77.946H319.111V77.946Z" fill="#828486"/>
<path d="M254.816 38.6822L254.907 39.4651L254.992 40.2833C255.068 41.2581 255.159 42.2935 255.2 43.2127L255.23 44.1875V67.2085L255.114 69.249L255.033 71.2592L254.992 72.2339L254.907 72.9208L254.856 73.8603H263.947L263.872 73.0168L263.831 72.2339C263.755 71.2945 263.695 70.2793 263.695 69.2439L263.675 68.0823V59.6729H266.7C274.21 59.6729 277.912 55.8647 278.039 49.3594C278.155 43.0713 274.463 38.6772 267.862 38.6772H254.816V38.6822ZM263.675 54.0717V43.9551H264.912C267.786 43.9551 269.523 45.9098 269.473 49.1826C269.432 52.1979 267.735 54.1121 264.836 54.0767H263.675V54.0717ZM279.514 73.8552H288.574L288.494 73.0118L288.443 72.2289C288.403 71.3501 288.367 70.3753 288.327 69.2389L288.287 68.0318V59.6325H288.696L291.862 67.153L292.721 69.2439C292.974 69.8298 293.231 70.6228 293.767 72.2339L294.302 73.8552H304.06L303.408 72.6229L303.232 72.2289L302.11 69.9409L301.787 69.2389L300.742 67.1984L296.671 57.8142C296.964 57.7183 297.257 57.5718 297.509 57.4253C300.04 56.0566 301.57 54.006 302.247 51.516C303.817 45.3996 300.989 40.0813 295.383 38.9095C294.731 38.7529 294.024 38.6772 293.312 38.6772H279.514L279.61 39.4954L279.685 40.3237C279.736 41.1116 279.761 42.1874 279.812 43.2531L279.852 44.5309L279.902 45.3592V67.2085L279.852 67.6479L279.812 69.249L279.736 71.0167L279.65 72.2339L279.61 72.9764L279.514 73.8552V73.8552ZM288.246 53.9606V43.9551L289.575 43.9955C292.494 43.9955 294.095 45.8138 294.095 48.8796C294.095 52.1221 292.494 53.9202 288.999 54.0161C288.746 54.0161 288.499 54.0161 288.246 53.9656M304.333 56.2132C304.333 57.395 304.383 58.5668 304.499 59.7385C305.717 70.9713 311.53 76.1028 320.535 73.9966C325.601 72.8249 328.924 68.2389 329.839 59.7385C330.056 57.395 330.056 55.0919 329.839 52.7484C328.919 44.2481 325.601 39.6621 320.535 38.4802C311.53 36.3286 305.717 41.5157 304.499 52.7484C304.383 53.9202 304.333 55.0919 304.333 56.2132M313.065 56.2132C313.065 55.0869 313.065 53.9151 313.151 52.7837C313.434 46.2381 314.479 44.1521 316.267 43.5662C319.101 42.6874 320.879 44.9754 321.202 52.7837C321.338 55.0869 321.338 57.3344 321.202 59.6779C320.879 66.9257 319.581 69.0621 317.187 69.0621C314.793 69.0621 313.484 66.9206 313.151 59.6779C313.065 58.5062 313.065 57.395 313.065 56.2132" fill="#828486"/>
<path d="M63.6822 73.8603C69.142 73.8603 73.8897 69.1631 73.4604 63.7033C73.021 59.1728 69.738 55.9 65.2682 55.5212C69.1471 54.9707 71.93 52.0817 72.2482 48.1573C72.6321 43.3036 68.536 39.1519 63.6822 39.1519H52V73.8603H63.6822ZM62.5408 43.0763C64.9904 43.0763 66.4096 45.6421 66.4096 48.1522C66.4096 50.6624 65.1621 53.6019 62.5408 53.6019H57.4598V43.0763H62.5357H62.5408ZM62.9297 57.4809C65.9197 57.4809 67.5561 60.7032 67.5561 63.7033C67.5561 66.7034 65.9146 69.9813 62.9297 69.9813H57.4598V57.4809H62.9297V57.4809ZM88.7236 58.2536C92.3752 57.1021 94.5622 53.0565 94.5622 48.92C94.5622 43.5309 90.1984 39.1519 84.7941 39.1519H75.0766V73.8603H80.5364V58.6324H83.3092L89.86 73.8603H96.0824L88.7185 58.2536H88.7236ZM80.5414 54.7585V43.0763H84.0264C86.9255 43.0763 88.7236 46.0259 88.7236 48.9149C88.7236 51.8039 86.9255 54.7535 84.0264 54.7535H80.5414V54.7585ZM121.452 56.3394C121.452 47.824 117.088 38.7731 108.583 38.7731C100.078 38.7731 95.7036 47.824 95.7036 56.3394C95.7036 64.8549 100.012 74.229 108.583 74.229C117.154 74.229 121.452 64.9054 121.452 56.3394M101.982 56.3394C101.982 50.3897 102.633 42.6975 108.583 42.6975C114.533 42.6975 115.184 50.3948 115.184 56.3394C115.184 62.2841 114.639 70.3601 108.583 70.3601C102.527 70.3601 101.982 62.3952 101.982 56.3394M135.857 67.259L137.225 73.8603H143.125L133.72 39.1519H129.033L119.704 73.8603H125.533L126.967 67.259H135.846H135.857ZM127.846 63.3245L131.382 46.1926L134.988 63.3245H127.846ZM153.327 73.8603C162.095 73.8603 166.959 67.6277 166.959 55.9C166.959 44.9905 161.726 39.1519 153.327 39.1519H144.751V73.8603H153.327ZM151.352 43.0763C157.731 43.0763 161.12 45.8087 161.12 56.3394C161.12 66.8701 157.898 69.9813 151.352 69.9813H150.201V43.0763H151.352V43.0763ZM182.57 38.7681C173.636 38.7681 168.939 47.334 168.939 55.9C168.939 65.2842 173.257 74.229 182.57 74.229C184.924 74.229 186.399 73.6835 188.419 72.7036V68.0166C186.621 69.5419 184.98 70.3601 182.57 70.3601C175.979 70.3601 175.166 62.4507 175.166 55.9C175.166 50.0109 176.691 42.6975 182.57 42.6975C184.985 42.6975 186.732 43.4703 188.419 44.9956V40.359C186.399 39.3135 184.924 38.7681 182.57 38.7681ZM206.485 67.2539L207.854 73.8552H213.743L204.359 39.1519H199.662L190.338 73.8603H196.177L197.591 67.259H206.49L206.485 67.2539ZM198.465 63.3195L202.011 46.1875L205.607 63.3195H198.465ZM231.547 43.0763V39.1519H224.552C220.966 39.1519 218.233 40.3994 216.38 43.4703C214.026 47.1724 214.809 51.6524 217.905 54.7585L224.946 61.7891C226.41 63.274 227.668 64.7387 227.299 66.8196C226.966 68.7237 225.324 69.9864 223.365 69.9864H215.562V73.8653H223.365C227.128 73.8653 230.183 72.7693 231.931 69.547C234.234 65.6226 232.8 61.0921 229.648 57.8647L221.845 50.0715C220.476 48.7634 220.097 47.1219 220.632 45.435C221.132 43.844 222.547 43.0814 224.188 43.0814H231.552L231.547 43.0763ZM252.805 43.0763V39.1519H233.33V43.0763H240.37V73.8603H245.81V43.0763H252.805Z" fill="white"/>
</g>
<defs>
<clipPath id="clip0_3056_9159">
<rect width="278" height="45.4865" fill="white" transform="translate(52 38)"/>
</clipPath>
</defs>
</svg>
