<svg width="100%" height="auto" viewBox="0 0 233 21" fill="#000" xmlns="http://www.w3.org/2000/svg">
<g filter="url(#filter0_b_2823_4394)">
<g clip-path="url(#clip0_2823_4394)">
<path d="M44.5237 0.680737H39.3959V20.3193H44.5237V0.680737Z" fill="white"></path>
<path d="M29.2796 0.680737H20.6506V20.3193H25.7733V14.8816H29.2796C34.2938 14.8816 37.1805 12.1964 37.1805 7.56945C37.1805 3.20075 34.2938 0.680737 29.2796 0.680737ZM29.0266 10.7969H25.7733V4.77059H29.0266C31.1025 4.77059 32.3057 5.80854 32.3057 7.73986C32.3057 9.67118 31.1025 10.7969 29.0266 10.7969Z" fill="white"></path>
<path d="M119.737 10.4871C119.737 4.66215 115.507 0.680737 109.285 0.680737H100.826V5.78789L105.954 14.0244V4.85838H109.176C112.285 4.85838 114.5 7.15634 114.5 10.5439C114.5 13.9314 112.399 16.1726 109.429 16.1726H107.291L109.853 20.2883C115.786 19.9784 119.737 16.1003 119.737 10.4819" fill="white"></path>
<path d="M80.7746 7.57462C80.7746 3.20591 77.8053 0.685902 72.5949 0.685902H63.7697V0.711721L68.8975 8.94823V4.77059H72.6207C74.6914 4.77059 75.8998 5.80855 75.8998 7.73987C75.8998 9.67119 74.6966 10.7918 72.6207 10.7918H70.049L70.0335 10.7969L75.9824 20.3141H81.6679L77.5522 13.7249C79.6333 12.5165 80.7694 10.4045 80.7694 7.56429" fill="white"></path>
<path d="M60.9088 0.680737H46.7131V4.91002H52.5432V20.3193H57.6659V4.91002H63.5476L60.9088 0.680737Z" fill="white"></path>
<path d="M82.7678 20.3193H88.474L92.1197 14.484L93.6948 11.9588L90.8442 7.39388L82.7678 20.3193ZM94.9806 9.90872L101.482 20.3193H107.168L94.898 0.680737H89.2124L93.607 7.71404" fill="white"></path>
<path d="M120.831 0.680737V7.89995L128.459 20.3193H136.602V16.2294H125.954V12.532L135.311 12.5062V8.44216H125.954V4.77059H136.323V0.680737H120.831Z" fill="white"></path>
<path d="M5.26723 10.3632C5.26723 7.22347 7.5652 4.84289 10.5913 4.84289C12.3005 4.84289 14.1751 5.84986 15.466 7.4197L18.4353 3.86174C16.473 1.78583 13.4211 0.5 10.5035 0.5C4.50813 0.5 0 4.7551 0 10.4148C0 16.0745 4.39969 20.5 10.3073 20.5C13.2197 20.5 16.3594 19.0696 18.4611 16.8594L15.466 13.6371C14.0924 15.0365 12.2179 15.9351 10.5913 15.9351C7.5652 15.9351 5.26723 13.5287 5.26723 10.3632Z" fill="white"></path>
<path d="M138.539 0.680737V20.3193H143.104V7.87929L147.668 18.357H151.03L155.595 7.87929L155.626 20.3193H160.165V0.680737H154.562L149.352 12.1396L144.141 0.680737H138.539Z" fill="white"></path>
<path d="M162.303 0.680737V7.89995L169.935 20.3193H178.079V16.2294H167.431V12.532L176.788 12.5062V8.44216H167.431V4.77059H177.795V0.680737H162.303Z" fill="white"></path>
<path d="M198.926 10.4871C198.926 4.66215 194.697 0.680737 188.474 0.680737H180.016V5.78789L185.143 14.0244V4.85838H188.366C191.474 4.85838 193.69 7.15634 193.69 10.5439C193.69 13.9314 191.588 16.1726 188.619 16.1726H186.481L189.042 20.2883C194.975 19.9784 198.926 16.1003 198.926 10.4819" fill="white"></path>
<path d="M206.243 0.680737H201.115V20.3193H206.243V0.680737Z" fill="white"></path>
<path d="M207.741 20.3193H213.447L217.093 14.484L218.668 11.9588L215.817 7.39388L207.741 20.3193ZM219.953 9.90872L226.455 20.3193H232.14L219.871 0.680737H214.185L218.58 7.71404" fill="white"></path>
</g>
</g>
<defs>
<filter id="filter0_b_2823_4394" x="-30" y="-29.5" width="292.146" height="80" filterUnits="userSpaceOnUse" color-interpolation-filters="sRGB">
<feFlood flood-opacity="0" result="BackgroundImageFix"></feFlood>
<feGaussianBlur in="BackgroundImageFix" stdDeviation="15"></feGaussianBlur>
<feComposite in2="SourceAlpha" operator="in" result="effect1_backgroundBlur_2823_4394"></feComposite>
<feBlend mode="normal" in="SourceGraphic" in2="effect1_backgroundBlur_2823_4394" result="shape"></feBlend>
</filter>
<clipPath id="clip0_2823_4394">
<rect width="232.146" height="20" fill="white" transform="translate(0 0.5)"></rect>
</clipPath>
</defs>
</svg>