<svg width="382" height="124" viewBox="0 0 382 124" fill="none" xmlns="http://www.w3.org/2000/svg">
<path d="M90.0186 75.8435H92.3829C96.3868 75.8435 96.435 73.379 96.435 69.8071C96.435 66.4366 96.435 63.6702 92.576 63.6702H90.0186V75.8435ZM85.0979 58.841H92.4792C95.1806 58.841 97.1587 59.4946 98.8469 61.3561C100.536 63.2172 101.066 65.4811 101.066 69.7572C101.066 72.8755 100.825 74.9887 99.6675 76.9503C98.3168 79.2642 96.1456 80.6727 92.5274 80.6727H90.0186V94.6572H85.0979V58.841" fill="white"/>
<path d="M108.352 74.8375H111.15C114.575 74.8375 115.106 72.8253 115.106 69.2536C115.106 65.6317 114.527 63.6702 110.909 63.6702H108.352V74.8375ZM103.431 58.841H111.342C117.18 58.841 120.026 62.4123 120.026 69.3547C120.026 73.4791 118.917 76.4973 115.781 78.3083L121.088 94.6572H115.877L111.295 79.3649H108.352V94.6572H103.431V58.841Z" fill="white"/>
<path d="M127.216 86.1629C127.216 88.628 128.76 89.7848 130.545 89.7848C132.33 89.7848 133.873 88.628 133.873 86.1629V67.2487C133.873 64.7836 132.33 63.6268 130.545 63.6268C128.76 63.6268 127.216 64.7836 127.216 67.2487V86.1629ZM122.296 67.2487C122.296 61.4134 126.541 58.496 130.545 58.496C134.549 58.496 138.794 61.4134 138.794 67.2487V86.1629C138.794 91.9983 134.549 94.916 130.545 94.916C126.541 94.916 122.296 91.9983 122.296 86.1629V67.2487Z" fill="white"/>
<path d="M152.913 58.7982H167.578V63.6274H157.834V74.1411H166.325V78.9702H157.834V89.4834H167.578V94.6143H152.913V58.7982Z" fill="white"/>
<path d="M184.895 86.6159C184.895 91.0426 181.47 94.916 177.08 94.916C173.317 94.916 168.976 93.0042 168.976 86.4646V66.7457C168.976 62.0673 172.208 58.496 176.983 58.496C181.518 58.496 184.895 62.0673 184.895 67.0477V69.0599H179.975V67.3494C179.975 65.3372 178.817 63.6268 176.935 63.6268C174.475 63.6268 173.896 65.3872 173.896 67.802V86.1125C173.896 88.175 174.668 89.7848 176.887 89.7848C178.238 89.7848 179.975 88.9801 179.975 86.1629V84.4027H184.895V86.6159Z" fill="white"/>
<path d="M192.457 63.6274H186.765V58.7982H203.07V63.6274H197.378V94.6143H192.457V63.6274Z" fill="white"/>
<path d="M145.508 58.786V85.5178C145.508 89.0993 143.34 89.8556 142.109 89.8556C141.678 89.8556 141.25 89.747 140.844 89.5741L139.952 94.7432C140.568 94.9031 141.235 95 141.961 95C147.332 95 150.534 90.965 150.534 86.224V58.786H145.508" fill="white"/>
<path d="M44.261 89.5369V78.0626H46.5291C50.2509 78.0626 50.9063 79.9212 50.9063 83.4911C50.9063 87.0224 50.6121 89.5369 46.4867 89.5369H44.261ZM44.261 73.5254V63.6593H46.3775C49.7465 63.6593 50.9063 65.3242 50.9063 68.4945C50.9063 71.7653 49.9941 73.5254 46.5836 73.5254H44.261ZM46.63 58.8218H39.1357V94.6631H46.1269C52.7757 94.6631 55.7302 91.1474 55.7302 84.9049V82.8938C55.7302 79.1679 54.6372 76.989 52.2176 75.8444C54.4814 74.4419 55.7302 73.0223 55.7302 69.196V67.8904C55.7302 63.2093 53.2679 58.8218 46.63 58.8218M63.142 58.8218H58.0105V94.6631H63.142V58.8218ZM74.1663 58.5257C69.9849 58.5257 65.5576 61.4444 65.5576 67.2868V86.21C65.5576 92.0606 69.9849 94.9717 74.1663 94.9717C78.3484 94.9717 82.7753 92.0606 82.7753 86.21V74.9362H73.5686V79.4599H77.6464V86.21C77.6464 88.6774 76.0317 89.8349 74.1663 89.8349C72.2996 89.8349 70.6988 88.6774 70.6988 86.21V67.2868C70.6988 64.823 72.2996 63.6593 74.1663 63.6593C76.0317 63.6593 77.6464 64.823 77.6464 67.2868V69.0951H82.7753V67.2868C82.7753 61.4444 78.3484 58.5257 74.1663 58.5257" fill="#878A8B"/>
<path d="M349 49.7356H326.983L320.179 28.7967L313.376 49.7356H33L39.2989 54.3115H305.443H316.701L320.179 43.6055L323.659 54.3115H334.915L325.807 60.9288L329.287 71.6346L322.795 66.9179V72.5743L337.991 83.6152L331.188 62.6764L349 49.7356Z" fill="#878A8B"/>
<path d="M208.739 69.1191H208.638L206.122 82.1016H211.254L208.739 69.1191ZM206.574 58.805H210.852L218.851 94.6299H213.718L212.21 86.9301H205.216L203.708 94.6299H198.575L206.574 58.805Z" fill="#878A8B"/>
<path d="M238.695 94.6299H233.863L229.941 71.3836H229.84L225.965 94.6299H221.136L215.801 58.8052H221.235L223.801 81.5471H223.902L227.927 58.8052H231.851L236.028 82.1016H236.128L238.595 58.8052H244.028L238.695 94.6299Z" fill="#878A8B"/>
<path d="M250.859 69.1191H250.759L248.242 82.1016H253.375L250.859 69.1191ZM248.694 58.805H252.972L260.971 94.6299H255.839L254.331 86.9301H247.336L245.828 94.6299H240.696L248.694 58.805Z" fill="#878A8B"/>
<path d="M267.829 74.8047H270.747C274.319 74.8047 274.872 72.7913 274.872 69.2208C274.872 65.5979 274.268 63.636 270.495 63.636H267.829V74.8047ZM262.697 58.8052H270.948C277.036 58.8052 280.005 62.3779 280.005 69.3211C280.005 73.4484 278.848 76.4666 275.577 78.2759L281.112 94.6299H275.679L270.897 79.3329H267.829V94.6299H262.697V58.8052" fill="#878A8B"/>
<path d="M287.596 89.7983H289.961C292.829 89.7983 293.936 88.39 293.936 85.3217V68.0631C293.936 65.2459 292.979 63.6357 289.961 63.6357H287.596V89.7983ZM282.464 58.8052H290.062C295.847 58.8052 299.068 62.2764 299.068 68.0631V84.8175C299.068 91.4586 295.646 94.6299 289.608 94.6299H282.464V58.8052" fill="#878A8B"/>
<path d="M318.559 69.1192H313.426V67.9627C313.426 65.5978 312.421 63.6357 309.805 63.6357C306.986 63.6357 306.333 65.8986 306.333 68.264C306.333 71.0327 306.584 71.9884 309.251 73.0438L313.175 74.6038C317.704 76.3146 318.559 79.1822 318.559 84.4164C318.559 90.4526 316.345 94.9297 309.704 94.9297C304.722 94.9297 300.948 91.2577 300.948 86.4271V84.5157H306.081V86.1248C306.081 87.9879 307.087 89.7984 309.704 89.7984C313.175 89.7984 313.426 87.7353 313.426 84.4661C313.426 80.6412 312.974 80.038 310.459 79.0321L306.785 77.5225C302.358 75.711 301.201 72.7918 301.201 68.3141C301.201 62.8809 304.119 58.5044 310.005 58.5044C315.137 58.5044 318.559 62.6294 318.559 66.6031V69.1192" fill="#878A8B"/>
</svg>
