<svg width="382" height="124" viewBox="0 0 382 124" fill="none" xmlns="http://www.w3.org/2000/svg">
<path d="M64.0896 67.4863C69.5496 67.4863 74.2977 62.7852 73.8632 57.325C73.423 52.794 70.148 49.5209 65.6701 49.1364C69.5496 48.5881 72.3298 45.6948 72.6592 41.7594C73.0434 36.902 68.9512 32.7484 64.0896 32.7484H52.4055V67.4863H64.0896ZM62.9431 36.6833C65.4013 36.6833 66.8196 39.2511 66.8196 41.7594C66.8196 44.3853 65.5609 47.2198 62.9431 47.2198H57.867V36.6833H62.9431ZM63.3257 51.0983C66.3262 51.0983 67.966 54.3205 67.966 57.325C67.966 60.387 66.3262 63.6121 63.3257 63.6121H57.867V51.0983H63.3257ZM89.1459 51.866C92.8038 50.719 94.9859 46.6768 94.9859 42.5242C94.9859 37.1178 90.6174 32.7484 85.2119 32.7484H75.4929V67.4863H80.9544V52.2481H83.7407L90.2909 67.4863H96.5145L89.1459 51.866ZM80.9544 48.368V36.6833H84.4483C87.3436 36.6833 89.1459 39.6313 89.1459 42.5242C89.1459 45.4206 87.3436 48.368 84.4483 48.368H80.9544ZM121.892 49.9559C121.892 41.4363 117.529 32.3679 109.01 32.3679C100.493 32.3679 96.1247 41.4363 96.1247 49.9559C96.1247 58.5307 100.437 67.8687 109.01 67.8687C117.58 67.8687 121.892 58.5307 121.892 49.9559ZM102.408 49.9559C102.408 43.9991 103.061 36.2973 109.01 36.2973C114.962 36.2973 115.618 43.9991 115.618 49.9559C115.618 56.0134 115.071 63.9904 109.01 63.9904C102.95 63.9904 102.408 56.0134 102.408 49.9559M136.316 60.8806L137.683 67.4863H143.576L134.187 32.7484H129.494L120.157 67.4863H125.996L127.414 60.8806H136.316ZM128.287 56.9466L131.836 39.7924L135.443 56.9466H128.287ZM153.785 67.4863C162.578 67.4863 167.435 61.2604 167.435 49.5209C167.435 38.5924 162.197 32.7484 153.785 32.7484H145.214V67.4863H153.785ZM151.82 36.6833C158.21 36.6833 161.594 39.4141 161.594 49.9559C161.594 60.0603 158.374 63.6121 151.82 63.6121H150.672V36.6833H151.82ZM183.07 32.3679C174.119 32.3679 169.422 40.9406 169.422 49.5209C169.422 58.915 173.736 67.8687 183.07 67.8687C185.422 67.8687 186.891 67.3223 188.914 66.3403V61.6444C187.107 63.1719 185.472 63.9904 183.07 63.9904C176.465 63.9904 175.645 56.0702 175.645 49.5209C175.645 43.6169 177.177 36.2973 183.07 36.2973C185.472 36.2973 187.219 37.0642 188.914 38.5924V33.9536C186.891 32.9185 185.422 32.3679 183.07 32.3679ZM206.996 60.8806L208.36 67.4863H214.261L204.864 32.7484H200.172L190.836 67.4863H196.677L198.097 60.8806H206.996ZM198.97 56.9466L202.517 39.7924L206.119 56.9466H198.97ZM232.07 36.6833V32.7484H225.082C221.481 32.7484 218.752 34.0084 216.895 37.0642C214.548 40.7795 215.312 45.2572 218.421 48.368L225.467 55.4149C226.939 56.8905 228.195 58.3668 227.814 60.4387C227.485 62.3523 225.849 63.6121 223.881 63.6121H216.073V67.4863H223.881C227.649 67.4863 230.708 66.3926 232.453 63.1719C234.747 59.241 233.332 54.7039 230.164 51.4891L222.351 43.6733C220.987 42.3645 220.605 40.7271 221.153 39.0322C221.643 37.4443 223.065 36.6833 224.697 36.6833H232.07ZM253.346 36.6833V32.7484H233.855V36.6833H240.9V67.4863H246.36V36.6833H253.346Z" fill="white"/>
<path d="M265.266 47.905H264.117V37.8871H265.353C268.19 37.8871 269.911 39.8246 269.871 43.0654C269.833 46.0639 268.146 47.9509 265.266 47.905V47.905ZM268.268 32.6668H255.362L255.444 33.4383L255.528 34.2623C255.609 35.2299 255.693 36.2438 255.733 37.1661L255.778 38.1322V39.2473V60.9142L255.654 62.9461L255.571 64.9278L255.528 65.8963L255.444 66.5702L255.407 67.4961H264.408L264.324 66.6699L264.284 65.8963C264.2 64.9766 264.163 63.9619 264.163 62.9461L264.117 61.7851V60.8666V53.4658H267.116C274.559 53.4658 278.216 49.6932 278.337 43.2571C278.463 37.0174 274.802 32.6668 268.268 32.6668" fill="#545758"/>
<path d="M289.185 47.8533C288.942 47.8533 288.692 47.8533 288.445 47.806V37.8871L289.762 37.9357C292.636 37.9357 294.239 39.7282 294.239 42.7779C294.239 45.9682 292.636 47.7589 289.185 47.8533ZM303.284 65.8963L302.175 63.6228L301.845 62.9461L300.817 60.9142L296.793 51.6304C297.076 51.5293 297.364 51.3837 297.611 51.2409C300.119 49.8826 301.64 47.8533 302.294 45.3878C303.855 39.3406 301.059 34.067 295.515 32.9069C294.856 32.7606 294.161 32.6668 293.461 32.6668H279.812L279.896 33.4885L279.983 34.3087C280.019 35.0854 280.062 36.1505 280.103 37.2132L280.143 38.4692L280.183 39.2923V60.9142L280.143 61.3491L280.103 62.9461L280.019 64.686L279.938 65.8963L279.896 66.6214L279.812 67.4961H288.772L288.692 66.6699L288.649 65.8963C288.609 65.0289 288.569 64.0574 288.525 62.9461L288.488 61.7358V60.9142V53.4173H288.896L292.019 60.8666L292.883 62.9461C293.128 63.5238 293.376 64.301 293.911 65.8963L294.446 67.4961H304.103L303.448 66.2785L303.284 65.8963" fill="#545758"/>
<path d="M321.062 53.4662C320.731 60.6255 319.456 62.7526 317.069 62.7526C314.687 62.7526 313.417 60.6255 313.086 53.4662C313.003 52.3019 313.003 51.1907 313.003 50.032C313.003 48.9208 313.003 47.7593 313.086 46.6442C313.369 40.1627 314.402 38.082 316.167 37.5035C318.959 36.6338 320.731 38.9065 321.062 46.6442C321.179 48.9208 321.179 51.1462 321.062 53.4662V53.4662ZM329.762 50.0066C329.762 48.8908 329.722 47.7243 329.6 46.5581C329.579 46.3368 329.55 46.1224 329.524 45.9058V45.8692C329.512 45.7861 329.5 45.7057 329.488 45.6231C329.476 45.5353 329.465 45.4485 329.453 45.3614C329.426 45.1708 329.398 44.9825 329.367 44.7962C329.277 44.2197 329.172 43.6624 329.055 43.1229C329.046 43.0825 329.036 43.0422 329.029 43.0023C328.275 39.6128 326.799 36.1036 323.882 34.0255C322.837 33.2816 321.65 32.7622 320.403 32.4728C319.073 32.1568 317.819 32.0002 316.636 32.0002C309.869 32.0002 305.552 37.1256 304.536 46.5976C304.412 47.7593 304.374 48.9208 304.374 50.032C304.374 51.1907 304.412 52.3507 304.536 53.5122C305.728 64.6401 311.48 69.7183 320.403 67.6393C325.269 66.5121 328.513 62.1943 329.524 54.237V54.153C329.55 53.9365 329.579 53.7221 329.6 53.5008C329.722 52.3345 329.762 51.1697 329.762 50.0066" fill="#545758"/>
<path d="M330 91.4189H52V73.0426H330V91.4189Z" fill="#545758"/>
<path d="M85.6419 85.007C86.2395 87.0329 87.9249 87.9716 89.9719 87.9716C90.8472 87.9716 91.9125 87.7804 92.5951 87.2466C93.1491 86.82 93.4916 86.0739 93.4916 85.3699C93.4916 83.8982 92.2762 83.3016 90.996 82.9809L88.565 82.3838C87.5836 82.1494 86.6883 81.9148 85.9193 81.2109C85.1528 80.5289 84.7253 79.5266 84.7253 78.5032C84.7253 75.6869 87.1562 74.4715 89.6954 74.4715C92.1475 74.4715 94.1093 75.6869 94.8983 78.0539L93.2353 78.5032C92.9153 76.9028 91.2086 75.9221 89.6518 75.9221C88.2663 75.9221 86.517 76.6471 86.517 78.2469C86.517 79.8881 87.7975 80.2518 89.1617 80.5721L91.3585 81.1048C92.3175 81.3179 93.2778 81.5948 94.0243 82.235C94.942 82.9809 95.3898 83.9839 95.3898 85.1358C95.3898 86.4575 94.8132 87.6516 93.7468 88.4627C92.6814 89.2734 91.2509 89.5283 89.9306 89.5283C86.9434 89.5283 84.9816 88.2068 84 85.3699L85.6419 85.007" fill="white"/>
<path d="M110.969 83.9403C110.969 85.391 110.884 86.7351 109.903 87.9081C108.922 89.0807 107.451 89.5283 105.958 89.5283C104.529 89.5283 103.014 89.2302 102.033 88.1204C100.968 86.9271 100.881 85.4553 100.881 83.9403V74.6852H102.716V83.9403C102.716 84.8153 102.738 86.0099 103.271 86.7778C103.867 87.6516 105.105 87.9081 106.106 87.9081C107.046 87.9081 108.112 87.6097 108.73 86.8626C109.434 86.0312 109.434 84.9439 109.434 83.9403V74.6852H110.969V83.9403" fill="white"/>
<path d="M130.6 89.3154H128.767V76.5404H128.682L124.053 89.3154H122.816L118.081 76.5404H117.996V89.3154H116.461V74.6848H119.19L123.605 86.3935L127.914 74.6848H130.6V89.3154" fill="white"/>
<path d="M150.23 89.3154H148.397V76.5404H148.311L143.684 89.3154H142.447L137.712 76.5404H137.627V89.3154H136.092V74.6848H138.821L143.236 86.3935L147.544 74.6848H150.23V89.3154" fill="white"/>
<path d="M155.722 89.3154V74.6848H157.557V89.3154H155.722Z" fill="white"/>
<path d="M169.041 89.3154H167.206V76.2842H163.048V74.6848H173.199V76.2842H169.041V89.3154Z" fill="white"/>
<path d="M183.666 80.2306L184.476 79.8242C185.33 79.3559 186.119 78.7589 186.119 77.6499C186.119 76.5615 185.223 75.8157 184.135 75.8157C183.155 75.8157 182.386 76.5183 182.386 77.5001C182.386 78.2894 183.133 79.3978 183.666 80.2306V80.2306ZM182.92 81.8728C181.427 82.5326 180.275 83.3016 180.275 85.0926C180.275 87.0978 181.662 88.1419 183.602 88.1419C184.71 88.1419 185.671 87.7585 186.459 86.9909L182.92 81.8728ZM191.323 89.2302C190.79 89.3159 190.234 89.3797 189.702 89.3797C188.507 89.3797 188.081 88.8259 187.291 88.0782C186.076 89.0807 184.967 89.5283 183.367 89.5283C182.258 89.5283 180.979 89.1871 180.105 88.526C179.081 87.7585 178.441 86.4782 178.441 85.2204C178.441 83.0241 180.126 81.573 182.216 80.7628C181.619 79.9306 180.83 78.6303 180.83 77.5647C180.83 75.7081 182.216 74.4715 184.092 74.4715C185.991 74.4715 187.505 75.5811 187.505 77.5647C187.505 79.5266 186.033 80.5508 184.413 81.2747L187.505 85.9456C188.593 84.6231 189.212 83.0028 189.489 81.3179L191.067 81.6384C190.641 83.6209 189.723 85.5397 188.358 87.0546C188.828 87.5665 189.233 87.8222 189.958 87.8222C190.321 87.8222 190.79 87.8017 191.323 87.7153V89.2302" fill="white"/>
<path d="M204.421 76.6467L202.16 83.6626H206.66L204.421 76.6467ZM210.414 89.3154H208.537L207.065 85.0502H201.649L200.347 89.3154H198.812L203.547 74.6848H205.659L210.414 89.3154Z" fill="white"/>
<path d="M227.722 89.3154H225.888L222.709 77.9689L219.724 89.3154H217.868L214.158 74.6848H216.034L218.956 86.5432H218.998L222.09 74.6848H223.563L226.891 86.5432H226.933L229.64 74.6848H231.241L227.722 89.3154Z" fill="white"/>
<path d="M241.343 76.6467L239.082 83.6626H243.582L241.343 76.6467ZM247.336 89.3154H245.459L243.987 85.0502H238.571L237.269 89.3154H235.734L240.468 74.6848H242.579L247.336 89.3154Z" fill="white"/>
<path d="M259.094 81.4879C260.075 81.4879 260.886 81.4246 261.611 80.6778C262.123 80.1653 262.357 79.4614 262.357 78.7585C262.357 77.9058 262.037 77.2019 261.333 76.7329C260.694 76.2842 260.075 76.2633 259.308 76.2633H255.66V81.4879H259.094ZM262.421 89.3154L259.713 82.9805H255.66V89.3154H253.826V74.6848H259.308C260.502 74.6848 261.653 74.8335 262.635 75.5807C263.616 76.3273 264.192 77.5426 264.192 78.7799C264.192 80.5077 263.169 82.0646 261.462 82.5321L264.34 89.3154H262.421" fill="white"/>
<path d="M274.354 87.7581C276.038 87.7581 277.381 87.375 278.342 85.9032C279.067 84.7939 279.408 83.2792 279.408 81.9572C279.408 80.4646 279.024 78.9075 278.064 77.7131C277.063 76.4555 275.888 76.2204 274.354 76.2204H271.666V87.7581H274.354ZM269.832 74.6848H274.46C276.55 74.6848 278.108 75.1114 279.493 76.7538C280.752 78.2253 281.264 80.0584 281.264 81.9572C281.264 83.7487 280.795 85.5187 279.749 86.9905C278.576 88.6327 277.063 89.3154 275.057 89.3154H269.832V74.6848" fill="white"/>
<path d="M288.398 85.007C288.995 87.0329 290.68 87.9716 292.727 87.9716C293.601 87.9716 294.667 87.7804 295.349 87.2466C295.904 86.82 296.245 86.0739 296.245 85.3699C296.245 83.8982 295.03 83.3016 293.751 82.9809L291.319 82.3838C290.338 82.1494 289.442 81.9148 288.674 81.2109C287.907 80.5289 287.48 79.5266 287.48 78.5032C287.48 75.6869 289.911 74.4715 292.449 74.4715C294.903 74.4715 296.865 75.6869 297.654 78.0539L295.99 78.5032C295.67 76.9028 293.963 75.9221 292.406 75.9221C291.021 75.9221 289.272 76.6471 289.272 78.2469C289.272 79.8881 290.551 80.2518 291.915 80.5721L294.113 81.1048C295.073 81.3179 296.032 81.5948 296.779 82.235C297.696 82.9809 298.144 83.9839 298.144 85.1358C298.144 86.4575 297.568 87.6516 296.502 88.4627C295.435 89.2734 294.006 89.5283 292.684 89.5283C289.699 89.5283 287.737 88.2068 286.755 85.3699L288.398 85.007" fill="white"/>
</svg>
