<svg width="382" height="124" viewBox="0 0 382 124" fill="none" xmlns="http://www.w3.org/2000/svg">
<g clip-path="url(#clip0_3056_9215)">
<path d="M255.985 55.3186C255.456 50.3231 257.014 48.0409 260.236 47.707C263.457 47.3661 265.454 49.2724 265.983 54.275L266.219 56.5293L259.589 57.232L260.368 64.6419L276.03 62.9929L275.181 54.936C274.179 45.4249 269.782 39.2047 259.464 40.2971C249.152 41.3825 246.133 48.3749 247.135 57.886L248.47 70.6185C249.472 80.1296 253.87 86.3428 264.188 85.2644C274.262 84.1999 277.386 77.5205 276.586 68.3155L267.562 69.2687L267.667 70.2359C268.195 75.2315 266.644 77.5136 263.416 77.8475C260.194 78.1885 258.197 76.2821 257.675 71.2795L257.014 64.9898L255.999 55.3186H255.985ZM81.9947 97.2942L75.3919 76.6717L65.7069 46.4685L52.5708 47.8531L58.6866 106.033L67.3906 105.115L62.6107 59.6672L62.7707 59.6533L76.5747 104.154L81.4103 103.647L81.9878 97.2942H81.9947ZM90.6013 102.679L99.3054 101.761L93.1896 43.5811L80.0535 44.9587L77.34 71.7387L82.774 88.7223L85.6544 57.239L85.8145 57.225L90.5874 102.672L90.6013 102.679ZM103.083 92.3195C103.668 97.8786 107.168 101.747 113.297 101.1C115.969 100.822 118.008 100.049 119.9 98.7762L119.211 92.1942C118.425 92.7717 117.541 93.1613 116.546 93.2657C113.805 93.5579 112.24 92.5838 111.94 89.759C111.606 86.5446 112.796 83.7546 117.882 79.6009L117.117 72.3162C106.868 78.0006 102.179 83.6641 103.083 92.3195ZM124.249 99.1379L132.869 98.2335C132.472 96.8071 131.965 95.0677 131.825 93.704L128.903 65.9012C128.075 58.0043 122.913 54.6368 114.529 55.5135C106.068 56.3971 101.01 61.7406 101.448 70.5768L110.472 69.6305C110.243 65.9082 110.876 63.3965 114.988 62.9651C117.966 62.652 119.622 64.4332 120.004 68.0581L120.067 68.6704L123.003 96.2018C123.163 97.6977 124.249 99.1449 124.249 99.1449M145.01 52.3895C136.07 54.0384 133.44 60.7665 134.379 69.728L135.715 82.4605C136.654 91.4219 140.627 97.4542 149.714 97.2107L148.913 89.6199C146.708 89.1676 145.33 87.1499 144.906 83.1214L143.229 67.1675C142.805 63.1391 143.737 60.8778 145.796 59.9733L145.003 52.3825L145.01 52.3895ZM153.352 67.2441L162.376 66.2978C161.305 57.559 157.339 51.7563 148.35 52.0346L149.143 59.5976C151.397 60.022 152.803 62.0397 153.227 66.1169L153.345 67.2441H153.352ZM163.768 79.5104L163.65 78.3833L154.626 79.3365L154.911 82.0778C155.342 86.155 154.382 88.4232 152.267 89.2998L153.06 96.8628C162.056 95.2347 164.707 88.4997 163.761 79.5104M171.964 107.786L180.953 106.84L171.366 15.5278L162.37 16.4671L171.971 107.779L171.964 107.786ZM188.593 92.3821L197.617 91.4358L193.929 56.3832C193.338 50.7405 190.151 47.5748 185.399 48.0757C182.074 48.4236 180.167 49.4116 178.449 50.9145L179.075 56.8772C179.861 56.3971 180.654 56.0701 181.503 55.9796C183.437 55.7779 184.829 56.6128 185.058 58.7836L188.593 92.389V92.3821ZM198.396 40.8398L207.42 39.8866L206.558 31.6696L197.533 32.6228L198.396 40.8398ZM203.642 90.7957L212.666 89.8495L208.116 46.4963L199.092 47.4426L203.649 90.7957H203.642ZM218.274 89.2581L226.777 88.3605L222.219 45.0074L213.717 45.9049L218.274 89.2581ZM236.322 87.3586L245.353 86.4124L241.666 51.3528C241.074 45.7171 237.888 42.5444 233.136 43.0453C229.608 43.4141 227.674 44.5065 225.733 46.2876L226.345 52.146C227.284 51.4989 228.224 51.0606 229.24 50.9562C231.174 50.7544 232.565 51.5893 232.795 53.7601L236.322 87.3586ZM282.194 82.5439L290.787 81.6395L286.23 38.2863L277.637 39.1908L282.194 82.5509V82.5439ZM293.521 45.3414C296.179 45.0631 297.765 45.3831 299.421 45.6197L298.426 36.1921L296.576 36.3869C293.939 36.6652 291.58 37.7506 289.736 39.4691L290.467 46.4337C291.357 45.8354 292.422 45.4597 293.521 45.3483M315.222 71.3143L316.718 53.9132L309.983 35.8024L302.191 36.6234L314.853 70.3889C314.972 70.702 315.097 71.0082 315.229 71.3213M314.06 85.487C310.47 85.8071 237.025 93.5857 237.025 93.5857L237.804 100.996L313.114 93.0778C320.607 92.2777 323.808 90.587 324.991 81.3194L329.43 33.7638L321.714 34.5779L319.146 62.8747H319.098L317.671 81.0689C317.671 81.0689 317.65 85.1739 314.067 85.494" fill="#AAADAD"/>
<path d="M255.985 55.3187C255.456 50.3231 257.014 48.0409 260.236 47.707C263.457 47.3661 265.454 49.2725 265.983 54.275L266.219 56.5293L259.589 57.232L260.368 64.6419L276.03 62.9929L275.181 54.936C274.179 45.4249 269.782 39.2047 259.464 40.2971C249.152 41.3825 246.133 48.3749 247.135 57.886L248.47 70.6185C249.472 80.1296 253.87 86.3428 264.188 85.2644C274.262 84.1999 277.386 77.5205 276.586 68.3156L267.562 69.2687L267.667 70.2359C268.195 75.2315 266.644 77.5136 263.416 77.8475C260.194 78.1885 258.197 76.2821 257.675 71.2795L257.014 64.9898L255.999 55.3187H255.985ZM81.9947 97.2942L75.3919 76.6717L65.7069 46.4685L52.5708 47.8531L58.6866 106.033L67.3906 105.115L62.6107 59.6672L62.7707 59.6533L76.5747 104.154L81.4103 103.647L81.9878 97.2942H81.9947ZM90.6013 102.679L99.3054 101.761L93.1896 43.5811L80.0535 44.9587L77.34 71.7387L82.774 88.7223L85.6544 57.239L85.8145 57.2251L90.5874 102.672L90.6013 102.679ZM103.083 92.3195C103.668 97.8786 107.168 101.747 113.297 101.1C115.969 100.822 118.008 100.049 119.9 98.7762L119.211 92.1942C118.425 92.7717 117.541 93.1613 116.546 93.2657C113.805 93.5579 112.24 92.5838 111.94 89.759C111.606 86.5446 112.796 83.7546 117.882 79.6009L117.117 72.3162C106.868 78.0006 102.179 83.6641 103.083 92.3195ZM124.249 99.138L132.869 98.2335C132.472 96.8071 131.965 95.0677 131.825 93.704L128.903 65.9012C128.075 58.0043 122.913 54.6368 114.529 55.5135C106.068 56.3971 101.01 61.7406 101.448 70.5768L110.472 69.6305C110.243 65.9082 110.876 63.3965 114.988 62.9651C117.966 62.652 119.622 64.4332 120.004 68.0581L120.067 68.6704L123.003 96.2018C123.163 97.6977 124.249 99.1449 124.249 99.1449V99.138ZM145.01 52.3825C136.07 54.0315 133.44 60.7595 134.379 69.721L135.715 82.4535C136.654 91.415 140.627 97.4472 149.714 97.2037L148.913 89.6129C146.708 89.1607 145.33 87.143 144.906 83.1145L143.229 67.1606C142.805 63.1321 143.737 60.8709 145.796 59.9664L145.003 52.3756L145.01 52.3825ZM153.352 67.2371L162.376 66.2909C161.305 57.5521 157.339 51.7494 148.35 52.0277L149.143 59.5907C151.397 60.0151 152.803 62.0328 153.227 66.11L153.345 67.2371H153.352ZM163.768 79.5035L163.65 78.3763L154.626 79.3295L154.911 82.0708C155.342 86.148 154.382 88.4162 152.267 89.2929L153.06 96.8558C162.056 95.2278 164.707 88.4927 163.761 79.5035H163.768ZM171.971 107.779L180.96 106.833L171.366 15.5278L162.37 16.4671L171.971 107.779V107.779ZM188.6 92.3751L197.624 91.4289L193.936 56.3762C193.345 50.7336 190.158 47.5678 185.406 48.0688C182.081 48.4167 180.174 49.4046 178.456 50.9075L179.082 56.8702C179.868 56.3901 180.661 56.0631 181.51 55.9727C183.444 55.7709 184.836 56.6058 185.065 58.7766L188.6 92.3821V92.3751ZM198.403 40.8328L207.427 39.8796L206.565 31.6626L197.54 32.6158L198.403 40.8328ZM203.649 90.7888L212.673 89.8425L208.123 46.4894L199.099 47.4356L203.656 90.7888H203.649ZM218.281 89.2511L226.783 88.3536L222.226 45.0005L213.724 45.898L218.281 89.2511ZM236.329 87.3517L245.36 86.4055L241.673 51.3458C241.081 45.7101 237.895 42.5374 233.143 43.0384C229.615 43.4072 227.681 44.4995 225.74 46.2807L226.352 52.139C227.291 51.4919 228.231 51.0536 229.246 50.9492C231.181 50.7475 232.572 51.5824 232.802 53.7532L236.329 87.3517ZM282.201 82.537L290.794 81.6325L286.237 38.2794L277.644 39.1839L282.201 82.544V82.537ZM293.528 45.3344C296.186 45.0561 297.772 45.3762 299.428 45.6127L298.433 36.1851L296.583 36.3799C293.946 36.6582 291.587 37.7436 289.743 39.4622L290.474 46.4268C291.364 45.8284 292.429 45.4527 293.528 45.3414V45.3344ZM315.229 71.3004L316.725 53.8993L309.99 35.7885L302.197 36.6095L314.86 70.375C314.979 70.6881 315.104 70.9942 315.236 71.3073L315.229 71.3004ZM314.06 85.4662C310.47 85.7862 237.025 93.5649 237.025 93.5649L237.804 100.975L313.114 93.057C320.607 92.2568 323.808 90.5661 324.991 81.2985L329.43 33.743L321.714 34.557L319.146 62.8538H319.098L317.671 81.0481C317.671 81.0481 317.65 85.1531 314.067 85.4731L314.06 85.4662Z" stroke="#AAADAD" stroke-width="1.39" stroke-miterlimit="10"/>
<path d="M155.724 36.2271L156.594 44.5137L158.229 44.3398L157.825 40.5409L157.784 40.2L157.617 39.372L157.638 39.3511L160.184 44.145L161.736 43.9849L160.866 35.6914L159.231 35.8653L159.621 39.5947C159.662 40.026 159.746 40.4504 159.885 40.8331L159.864 40.854L157.297 36.0671L155.724 36.2341V36.2271ZM151.007 40.9096C150.93 40.1721 150.791 38.1405 151.884 38.0222C152.976 37.9109 153.261 39.9217 153.345 40.6592C153.414 41.3132 153.56 43.4283 152.468 43.5466C151.383 43.6579 151.083 41.5637 151.014 40.9096M151.731 36.5055C150.269 36.6585 148.941 37.9805 149.268 41.0905C149.595 44.2006 151.167 45.2164 152.635 45.0634C154.096 44.9103 155.425 43.5883 155.098 40.4783C154.771 37.3682 153.199 36.3524 151.731 36.5055M146.123 37.229L146.992 45.5156L148.627 45.3486L147.758 37.0551L146.123 37.229V37.229ZM141.016 37.7717L141.176 39.3094L142.463 39.1702L143.173 45.9192L144.808 45.7522L144.098 38.9963L145.392 38.8641L145.232 37.3195L141.009 37.7648L141.016 37.7717ZM140.292 37.9039C140.007 37.8344 139.729 37.8065 139.443 37.8413C137.21 38.0709 136.069 40.3322 136.285 42.3847C136.514 44.5555 138.045 46.5523 140.41 46.3018C140.675 46.274 140.918 46.2044 141.155 46.0861L140.995 44.5346C140.793 44.625 140.591 44.7016 140.383 44.7224C138.956 44.8686 138.17 43.4214 138.038 42.1899C137.906 40.9166 138.393 39.539 139.833 39.3859C140.042 39.365 140.243 39.379 140.459 39.4068L140.299 37.9039H140.292ZM129.981 38.9337L130.628 45.0912C130.788 46.6428 131.776 47.262 133.307 47.102C135.672 46.8515 135.61 45.3486 135.519 44.465L134.886 38.4188L133.244 38.5927L133.842 44.3119C133.898 44.9312 133.961 45.5365 133.161 45.62C132.27 45.7174 132.249 44.7572 132.18 44.131L131.616 38.7667L129.981 38.9406V38.9337ZM126.015 40.7148L126.238 40.694C127.059 40.5618 127.393 41.021 127.455 41.6124C127.525 42.2942 127.281 42.83 126.537 42.9065L126.252 42.9274L126.022 40.7218L126.015 40.7148ZM126.746 47.6516L126.342 43.8249H126.363L128.207 47.4985L129.932 47.3107L128.095 43.6927C128.861 43.15 129.146 42.336 129.049 41.4245C128.812 39.1633 126.927 39.2468 125.883 39.3581L124.234 39.532L125.111 47.8186L126.746 47.6447V47.6516ZM119.127 40.0747L119.287 41.6124L120.574 41.4732L121.284 48.2221L122.926 48.0482L122.216 41.2993L123.51 41.1671L123.35 39.6225L119.127 40.0678V40.0747ZM118.146 40.4574C117.666 40.2417 117.179 40.1443 116.65 40.2C115.245 40.3461 114.604 41.5637 114.737 42.8717C114.862 44.0823 115.509 44.6389 116.525 45.1747C117.019 45.46 117.555 45.6478 117.617 46.281C117.673 46.8306 117.297 47.2272 116.768 47.2829C116.281 47.3316 115.892 47.1994 115.481 46.9698L115.641 48.5283C116.045 48.7648 116.629 48.8483 117.088 48.7996C118.626 48.6396 119.357 47.4359 119.204 45.9609C118.967 43.7205 116.469 43.9014 116.323 42.5447C116.267 42.0368 116.56 41.6959 117.061 41.6402C117.513 41.5915 117.944 41.7933 118.306 42.0437L118.139 40.4504L118.146 40.4574ZM108.28 41.2158L109.15 49.5024L110.792 49.3284L110.388 45.5226L110.346 45.1816L110.179 44.3537L110.2 44.3259L112.747 49.1197L114.298 48.9597L113.429 40.6661L111.794 40.8401L112.183 44.5694C112.225 44.9938 112.308 45.4252 112.448 45.8078L112.427 45.8287L109.859 41.0418L108.287 41.2088L108.28 41.2158ZM103.563 45.9052C103.486 45.1677 103.347 43.1431 104.439 43.0178C105.532 42.9065 105.817 44.9173 105.894 45.6548C105.963 46.3157 106.109 48.4239 105.017 48.5352C103.931 48.6535 103.632 46.5593 103.563 45.8983M104.279 41.4941C102.818 41.6472 101.489 42.9691 101.816 46.0792C102.143 49.1893 103.716 50.2051 105.184 50.052C106.645 49.8989 107.974 48.577 107.647 45.4669C107.32 42.3568 105.747 41.341 104.279 41.4941ZM100.801 42.0507C100.515 41.9811 100.237 41.9533 99.9447 41.9881C97.7183 42.2177 96.5703 44.4789 96.7929 46.5384C97.0225 48.7092 98.5532 50.713 100.919 50.4625C101.183 50.4347 101.434 50.3651 101.663 50.2399L101.496 48.6883C101.295 48.7788 101.093 48.8553 100.884 48.8762C99.4577 49.0223 98.6715 47.5751 98.5393 46.3436C98.4071 45.0703 98.8941 43.6927 100.334 43.5396C100.543 43.5188 100.745 43.5327 100.961 43.5605L100.801 42.0577V42.0507Z" fill="white"/>
<path d="M229.496 93.7319L229.67 95.3391L230.888 95.2069L231.626 102.262L233.17 102.095L232.433 95.0539L233.657 94.9217L233.483 93.3145L229.496 93.7319V93.7319ZM228.731 94.1076C228.279 93.878 227.813 93.7737 227.312 93.8293C225.976 93.9685 225.385 95.2278 225.531 96.5915C225.663 97.8508 226.282 98.4422 227.242 99.0128C227.708 99.3119 228.216 99.5137 228.286 100.182C228.341 100.752 227.987 101.156 227.486 101.218C227.033 101.26 226.658 101.121 226.268 100.877L226.435 102.512C226.818 102.763 227.374 102.853 227.813 102.812C229.267 102.659 229.949 101.413 229.782 99.8755C229.538 97.5377 227.173 97.7047 227.02 96.2784C226.964 95.7496 227.228 95.3948 227.708 95.3461C228.14 95.2974 228.543 95.5131 228.891 95.7775L228.717 94.1146L228.731 94.1076ZM223.339 100.293L222.247 100.404L222.337 98.0596L222.365 96.7376H222.386L222.699 98.0248L223.339 100.293V100.293ZM221.384 94.5877L220.472 103.431L222.01 103.271L222.135 101.789L223.708 101.622L224.146 103.048L225.795 102.874L223.005 94.4207L221.37 94.5947L221.384 94.5877ZM215.866 95.1652L216.771 103.821L219.909 103.487L219.742 101.879L218.149 102.046L217.94 100.098L219.324 99.9451L219.157 98.3379L217.773 98.484L217.578 96.5985L219.143 96.4384L218.97 94.8312L215.853 95.1582L215.866 95.1652ZM209.041 95.8818L209.952 104.537L213.09 104.21L212.923 102.603L211.337 102.77L211.128 100.822L212.513 100.676L212.346 99.0684L210.961 99.2145L210.766 97.329L212.332 97.162L212.165 95.5548L209.048 95.8818H209.041ZM205.193 96.2854L206.098 104.941L209.271 104.607L209.104 103L207.482 103.173L206.745 96.1253L205.2 96.2854H205.193ZM201.965 103.821L201.374 98.2405C202.654 98.1083 203.148 99.8199 203.266 100.919C203.384 101.998 203.217 103.758 201.965 103.821ZM201.965 105.379C204.407 105.122 205.082 103.243 204.818 100.773C204.31 95.9375 201.116 96.7167 200.845 96.7446L199.669 96.8629L200.574 105.525L201.958 105.379H201.965ZM196.448 104.398L195.856 98.8249C197.136 98.6858 197.63 100.404 197.749 101.504C197.867 102.582 197.7 104.342 196.448 104.398ZM196.448 105.957C198.89 105.699 199.565 103.821 199.3 101.351C198.792 96.5219 195.599 97.2942 195.327 97.329L194.152 97.4543L195.063 106.11L196.448 105.963V105.957ZM191.508 97.7256L192.419 106.381L193.971 106.221L193.059 97.5656L191.508 97.7256V97.7256ZM184.362 98.477L184.585 107.209L186.248 107.035L185.816 100.773H185.837L185.851 100.933L186.31 102.833L187.507 106.896L188.704 106.771L188.933 102.596L188.954 100.432H188.982L190.005 106.624L191.598 106.457L189.866 97.8856L187.785 98.1083L187.702 103.278H187.681L186.38 98.2544L184.341 98.4631L184.362 98.477Z" fill="white"/>
</g>
<defs>
<clipPath id="clip0_3056_9215">
<rect width="278" height="94.2659" fill="white" transform="translate(52 14.5737)"/>
</clipPath>
</defs>
</svg>
